<svg xmlns="http://www.w3.org/2000/svg" width="150" height="151" viewBox="0 0 150 151" xmlns:xlink="http://www.w3.org/1999/xlink">
  <defs>
    <ellipse id="a" cx="75" cy="75.5" rx="75" ry="75.5"/>
    <linearGradient id="c" x1="49.999%" x2="49.999%" y1="97.46%" y2="-.392%">
      <stop stop-color="#673620" stop-opacity=".8" offset="0%"/>
      <stop stop-color="#481C08" offset="70%"/>
    </linearGradient>
    <linearGradient id="d" x1="46.386%" x2="46.386%" y1="106.699%" y2="2.024%">
      <stop stop-color="#6E3E27" offset="10%"/>
      <stop stop-color="#673620" offset="100%"/>
    </linearGradient>
    <radialGradient id="e" cx="47.858%" cy="46.863%" r="56.997%" fx="47.858%" fy="46.863%">
      <stop stop-color="#FFFFFF" offset="0%"/>
      <stop stop-color="#FDFEFE" offset="54.4%"/>
      <stop stop-color="#F6F8F9" offset="74%"/>
      <stop stop-color="#EAEFF2" offset="87.9%"/>
      <stop stop-color="#D9E3E8" offset="99.2%"/>
      <stop stop-color="#D8E2E7" offset="100%"/>
    </radialGradient>
    <radialGradient id="f" cx="50.264%" cy="48.018%" r="48.786%" fx="50.264%" fy="48.018%">
      <stop stop-color="#673620" offset="0%"/>
      <stop stop-color="#673620" stop-opacity=".3" offset="70%"/>
      <stop stop-color="#764630" stop-opacity="0" offset="100%"/>
    </radialGradient>
    <radialGradient id="g" cx="37.66%" cy="289.504%" r="110.811%" fx="37.66%" fy="289.504%">
      <stop stop-color="#000000" stop-opacity="0" offset="95%"/>
      <stop stop-color="#000000" stop-opacity=".2" offset="100%"/>
    </radialGradient>
    <radialGradient id="h" cx="52.141%" cy="46.873%" r="56.997%" fx="52.141%" fy="46.873%">
      <stop stop-color="#FFFFFF" offset="0%"/>
      <stop stop-color="#FDFEFE" offset="54.4%"/>
      <stop stop-color="#F6F8F9" offset="74%"/>
      <stop stop-color="#EAEFF2" offset="87.9%"/>
      <stop stop-color="#D9E3E8" offset="99.2%"/>
      <stop stop-color="#D8E2E7" offset="100%"/>
    </radialGradient>
    <radialGradient id="i" cx="49.736%" cy="48.015%" r="48.786%" fx="49.736%" fy="48.015%">
      <stop stop-color="#673620" offset="0%"/>
      <stop stop-color="#673620" stop-opacity=".3" offset="70%"/>
      <stop stop-color="#764630" stop-opacity="0" offset="100%"/>
    </radialGradient>
    <radialGradient id="j" cx="62.336%" cy="289.504%" r="110.811%" fx="62.336%" fy="289.504%">
      <stop stop-color="#000000" stop-opacity="0" offset="95%"/>
      <stop stop-color="#000000" stop-opacity=".2" offset="100%"/>
    </radialGradient>
    <radialGradient id="k" cx="50.001%" cy="50.001%" r="49.999%" fx="50.001%" fy="50.001%">
      <stop stop-color="#855844" stop-opacity=".5" offset="0%"/>
      <stop stop-color="#764630" stop-opacity="0" offset="90%"/>
    </radialGradient>
    <radialGradient id="l" cy="50.001%" r="49.333%" fx="50%" fy="50.001%">
      <stop stop-color="#855844" stop-opacity=".5" offset="0%"/>
      <stop stop-color="#764630" stop-opacity="0" offset="90%"/>
    </radialGradient>
  </defs>
  <g fill="none" fill-rule="evenodd">
    <mask id="b" fill="white">
      <use xlink:href="#a"/>
    </mask>
    <use fill="#D8D8D8" xlink:href="#a"/>
    <g mask="url(#b)">
      <polygon fill="#ECF0F1" points="165.077 164.86 0 164.86 0 0 165.077 0"/>
      <g transform="translate(11.225 9.672)">
        <polygon fill="#2A232B" points=".99 .989 .33 .989 .33 .33 .99 .33" transform="translate(67.351 64.625)"/>
        <g transform="translate(1.98 79.608)">
          <path fill="#764630" d="M129.035366,51.4741077 C127.58533,48.3444149 123.624143,43.7065874 119.223192,42.4252994 C113.782916,40.8406698 101.502512,38.9250024 96.9490297,37.8600101 C93.2988483,37.0053784 85.9469815,30.4123173 83.3704605,28.1992433 C82.908245,27.8035805 82.5298887,26.9865368 82.5206444,26.3791944 C82.4288616,19.2150599 85.2906355,0.18367914 85.2906355,0.18367914 L66.0307782,0.18367914 L46.7715811,0.18367914 C46.7715811,0.18367914 49.633355,19.2144005 49.5402516,26.3791944 C49.5329882,26.9865368 49.1526509,27.8035805 48.6917561,28.1992433 C46.1152352,30.4123173 38.7633683,37.0053784 35.1131869,37.8600101 C30.5590441,38.9250024 18.27864,40.9059542 12.8390245,42.4905837 C8.43675252,43.7712123 4.47688676,48.3437555 3.02685087,51.4734482 C0.578429617,56.7542278 -1.42108547e-14,66.3108033 -1.42108547e-14,74.5537784 L66.0307782,74.5537784 L132.061556,74.5537784 C132.061556,66.3114628 131.482466,56.7548872 129.035366,51.4741077 Z"/>
          <path fill="#855844" d="M105.091945,41.1077422 C121.165157,43.4434717 127.92935,46.8501284 130.047618,74.5550972 L132.061556,74.5550972 C132.061556,66.3121222 131.482466,56.7555466 129.035366,51.4747671 C127.58533,48.3450743 123.624143,43.7072469 119.223192,42.4259588 C113.782916,40.8413293 101.502512,38.9256619 96.9490297,37.8606695 C93.2988483,37.0060379 84.9036952,29.9019122 82.6579884,27.0788581 C84.8766225,30.1808545 91.1039852,37.3693882 96.5601084,39.2520837 C99.1703051,40.152876 101.344038,40.5630464 105.091945,41.1077422 Z M35.5021082,39.2520837 C40.9582314,37.3700476 47.1849338,30.1808545 49.4042282,27.0788581 C47.1591818,29.9012528 38.7640286,37.0060379 35.1131869,37.8606695 C30.5597044,38.9256619 18.2793003,40.9066136 12.8390245,42.4912432 C8.43807314,43.7718718 4.47688676,48.3444149 3.02685087,51.4741077 C0.579750232,56.7548872 0.000660307781,66.3114628 0.000660307781,74.5544378 L2.01459904,74.5544378 C4.11966025,47.0268578 10.9122464,43.4401745 26.9702713,41.1070828 C30.717518,40.5630464 32.8919115,40.152876 35.5021082,39.2520837 Z"/>
          <path fill="#673620" d="M63.1557981,50.0510405 C63.1557981,50.0510405 59.8053964,48.9900047 58.4788381,48.4822374 C51.579282,45.8385505 29.1644741,44.1253305 29.1644741,44.1253305 C29.1644741,44.1253305 52.7731185,45.0610731 57.9829469,45.9579088 C57.6805259,42.8143678 55.9907983,32.7665109 55.9907983,32.7665109 C55.9907983,32.7665109 59.3907231,43.854961 60.2227109,46.652297 C60.6677583,48.1479024 63.1557981,50.0510405 63.1557981,50.0510405 Z M70.2864618,49.1660747 C70.2276944,49.2142136 70.160343,49.2768602 70.0870489,49.342804 C70.1616636,49.2867518 70.229015,49.2280618 70.2864618,49.1660747 Z M63.1557981,50.0510405 C63.1557981,50.0510405 65.0660685,52.024079 66.026156,52.0491376 C67.2873439,52.0827689 69.214122,50.1374268 70.0877092,49.342804 C69.2524198,49.9738862 67.3414891,50.2600823 66.5814748,50.289757 C65.7032655,50.3233883 63.1557981,50.0510405 63.1557981,50.0510405 Z M77.034147,45.0927261 C76.0139715,45.2562667 74.1380371,45.6130227 74.1380371,45.6130227 L75.648161,35.7939908 C75.2216022,37.8191249 72.693944,46.4841403 70.2864618,49.1660747 C71.5476497,48.1004228 74.3526371,47.5893584 75.7828638,47.3829543 C82.5417742,46.4043483 82.539133,46.4050077 102.896422,44.1253305 C102.896422,44.1253305 83.7006144,44.0231177 77.034147,45.0927261 Z"/>
          <path stroke="#481C08" stroke-width="4.5" d="M129.035366,51.4741077 C127.58533,48.3444149 123.624143,43.7065874 119.223192,42.4252994 C113.782916,40.8406698 101.502512,38.9250024 96.9490297,37.8600101 C93.2988483,37.0053784 85.9469815,30.4123173 83.3704605,28.1992433 C82.908245,27.8035805 82.5298887,26.9865368 82.5206444,26.3791944 C82.4288616,19.2150599 85.2906355,0.18367914 85.2906355,0.18367914 L66.0307782,0.18367914 L46.7715811,0.18367914 C46.7715811,0.18367914 49.633355,19.2144005 49.5402516,26.3791944 C49.5329882,26.9865368 49.1526509,27.8035805 48.6917561,28.1992433 C46.1152352,30.4123173 38.7633683,37.0053784 35.1131869,37.8600101 C30.5590441,38.9250024 18.27864,40.9059542 12.8390245,42.4905837 C8.43675252,43.7712123 4.47688676,48.3437555 3.02685087,51.4734482 C0.578429617,56.7542278 -1.42108547e-14,66.3108033 -1.42108547e-14,74.5537784 L66.0307782,74.5537784 L132.061556,74.5537784 C132.061556,66.3114628 131.482466,56.7548872 129.035366,51.4741077 Z"/>
        </g>
        <path fill="url(#c)" d="M34.1745403,22.5844328 C34.1560517,22.4690311 34.1428455,22.3542889 34.1408646,22.2448222 C34.0787957,17.3781697 35.3419644,7.2617313 36.1864981,1.0913699 C25.8203262,-0.216955103 10.476094,-0.211020161 0.109261838,1.1019209 C0.953795491,7.27360119 2.21564366,17.3814669 2.15225411,22.2448222 C2.15159381,22.3232953 2.14300981,22.4050656 2.13244488,22.4868359 C4.65812214,24.8515806 7.19502464,26.7916472 9.43214741,27.8619151 C12.9397023,29.5408443 23.3217216,29.4623712 26.8649331,27.8619151 C29.117243,26.8457211 31.6548058,24.9346698 34.1745403,22.5844328 Z" transform="translate(49.864 83.749)"/>
        <g transform="translate(0 112.104)">
          <path fill="#1D282E" d="M75.8072952,42.7896132 C63.1723058,42.7896132 48.4342361,42.7408148 30.7525143,42.6386019 L15.1170863,42.5541938 C5.67600569,42.5027577 5.11936623,42.4922067 3.96646884,42.4922067 L0.731621022,42.4968227 C-2.28664585,14.8828563 10.2466562,7.63233546 29.6280102,5.1014124 C34.7711475,4.37800891 39.8291051,3.0591329 43.7975548,0.503810635 C54.5784,15.1716902 86.5927625,12.0848609 92.0680346,0.0890241306 C92.9858624,0.438526273 93.744556,0.890241306 94.6940786,1.23248963 C97.7750747,3.4963403 102.005006,5.08096982 106.333984,5.32034582 C123.507269,6.27059598 135.664196,13.8904021 135.425164,41.3520384 C135.427145,41.4608456 135.427805,42.126878 135.41658,42.334601 C127.154149,42.334601 124.055324,42.414393 117.56582,42.5073737 C108.763257,42.632667 97.8074298,42.7889538 75.8152189,42.7889538 C75.8119173,42.7896132 75.8099364,42.7896132 75.8072952,42.7896132 Z"/>
          <path fill="#2D373D" d="M134.739104,41.9666346 C134.468378,37.0966849 132.055614,23.4641231 127.898316,17.2106725 C119.656354,4.8099408 99.9937089,9.16157219 95.4560738,4.22435985 C92.1637792,10.9235905 78.964887,15.1677335 74.5943098,15.7909024 C87.2596733,11.5968767 92.5791128,8.56412136 94.6808725,1.3689933 C98.9101438,6.86211187 121.802354,2.6687456 130.810933,17.4137794 C133.448863,21.73112 135.957372,35.4731486 134.739104,41.9666346 Z M38.8333609,4.37075509 C39.7293986,4.16303212 40.176427,3.54711702 41.0658615,3.30642215 L40.1242627,2.05942489 C34.1491375,6.70978169 11.7911161,3.80363841 4.12494271,17.9096768 C1.70887654,22.3549483 0.0792369338,32.93695 1.35693249,41.9389382 C1.71151777,36.41021 1.88451841,24.5864865 6.0418162,18.3323765 C13.5191415,7.08236416 27.1544972,10.0544512 37.4850124,5.29198998 C42.0959417,10.9631568 49.296598,13.7512607 56.6233732,14.9046178 C47.4312286,12.5101984 42.1606518,8.46718397 38.8333609,4.37075509 Z"/>
          <path fill="#101A1F" d="M91.3271693,1.47977888 C87.6743466,9.07254806 60.0615958,17.9149523 44.4915383,2.05942489 C43.5235271,2.46959533 40.6274172,3.45215795 40.6274172,3.45215795 C51.9688636,18.8737751 85.2054558,18.9713719 94.0522595,3.37698202 C94.0133013,3.36181495 92.2265085,1.93610998 91.3271693,1.47977888 Z"/>
          <path fill="#000000" d="M92.0336986,0.00131887601 C85.8182214,12.413261 53.4737051,14.1693444 43.8233068,0.418083695 C40.2992442,1.45867687 36.9105447,3.67636687 33.4987344,4.23095423 C13.0820178,7.26766624 -2.0112975,8.79360579 0.660307782,42.568042 C7.22376713,42.568042 -3.70498696,42.5251786 30.7511937,42.7098212 C112.358632,43.1780222 109.698913,42.4058203 135.47997,42.4058203 C135.499119,42.313499 135.489874,41.4483163 135.493836,41.3533572 C136.877841,4.13731404 115.12202,6.33456147 100.418287,3.76868819 C98.3422791,3.29521171 96.4128598,1.94006661 94.7165291,1.16720527 C93.7795524,0.739230003 92.9832212,0.354777646 92.0336986,0.00131887601 Z M43.5895579,0.834189075 C52.156391,16.2597629 85.9938633,13.1650203 92.5269485,0.900792314 C93.3193178,1.23314907 93.5220323,1.36503667 94.4405205,1.6901396 C87.6736863,15.8608029 54.2000436,20.3766343 40.5085618,2.457066 C40.6049667,2.43002905 42.6241879,1.1955611 43.5895579,0.834189075 Z M1.42296327,42.057637 C-0.17564187,24.6280311 2.60953635,10.376257 23.0678523,6.8799167 C29.8531751,5.62962224 34.0005683,5.58609933 39.8291051,3.0591329 C50.8978444,21.1310314 87.4359755,18.3303982 95.029515,2.19856631 C96.1203434,3.12771445 97.8212963,4.19666346 99.9190941,4.69453915 C111.869344,7.52946313 136.129052,4.10500158 134.848055,42.0569776 C99.1537974,41.5940521 69.5667263,40.5112549 1.42296327,42.057637 Z"/>
        </g>
        <g transform="translate(23.991)">
          <g transform="translate(.155 49.367)">
            <path fill="#764630" stroke="#481C08" stroke-width="4.275" d="M8.78271986,4.68134253 C7.91956562,3.14462134 5.24604573,-0.63108947 2.52234244,0.294200868 C0.797915839,0.879946614 0.456668814,2.79567976 0.179405605,4.48713806 C-0.189442283,6.7367776 0.474860291,11.1865659 1.05071465,12.7940777 C1.60335919,14.3395694 3.26693844,17.3234272 4.35278145,18.460463 C5.68891411,19.85435 7.34810231,24.3016324 7.6109378,24.7633378 C8.02495073,25.4912914 8.57445881,26.5869805 10.1966368,26.4497844 C11.9863018,26.2969267 13.0721448,25.2908223 13.8700606,25.12105 C15.8410131,24.7038236 11.0290537,8.68132819 8.78271986,4.68134253 Z"/>
            <path fill="#481C08" d="M7.02379218,13.9987719 C6.94098959,13.6347951 7.02818323,13.0214849 7.11286769,12.430101 C7.19065194,11.8907137 7.26341785,11.3807703 7.21888009,11.0199259 C7.05139304,9.67051806 6.1066908,7.10513963 5.48943515,5.71563796 C4.77934023,4.1156437 3.63076799,2.10092892 2.18862293,1.58158858 C1.59269522,1.36671073 1.20063751,1.6235618 0.972930398,1.88479814 C0.806070639,2.07587028 0.769060392,2.30139805 0.823634825,2.32770963 C0.877581965,2.3540212 1.00241314,2.16858725 1.18244604,1.9925503 C1.32985973,1.84908957 1.54564829,1.72567576 1.84173027,1.75136087 C1.72254473,2.42355893 1.10968013,6.06332661 1.37502478,8.54538505 C1.58391312,10.4968268 2.37430146,11.9546132 2.49787804,12.1732499 C2.51606952,12.4031629 2.54617955,12.6280642 2.59071731,12.8467009 C3.17347188,15.6952419 5.70898746,18.9340714 6.59158777,19.9940519 C6.75405648,20.1901358 6.92467999,20.3054055 6.96670858,20.259047 C7.00810987,20.2114356 6.9077431,20.0166047 6.74527439,19.8205208 C5.87459264,18.7686843 3.36354145,15.5411313 2.80023295,12.7928248 C2.20305065,9.87599892 4.25429656,5.55338326 4.71221996,4.63811638 C4.94494541,5.06724561 5.14316978,5.48008673 5.29560182,5.82401659 C5.41478736,6.09402345 5.54777333,6.4103888 5.68389577,6.75055986 C5.41478736,7.22792698 3.52977392,10.7098252 4.21728631,13.4957197 C4.47196699,14.5237505 5.61928466,15.8480997 6.37956296,16.210197 C6.79796694,16.4106662 6.95604461,16.7094905 7.13795938,17.0552997 C7.3487296,17.456238 7.58835527,17.9104259 8.28464975,18.2405735 C8.42579053,18.3082318 8.55375816,18.3351698 8.66729807,18.3351698 C8.86364057,18.3351698 9.01293615,18.2505969 9.12208501,18.1516153 C9.13337627,18.3270258 9.13274898,18.5525535 9.12773064,18.7592873 C9.12020313,19.0292942 9.15407692,19.2498102 9.21366969,19.254822 C9.27263517,19.2598337 9.33661899,19.0468353 9.3435192,18.7787078 C9.35355588,18.4491866 9.351674,18.0413573 9.29835415,17.8465263 C9.14278566,17.272057 8.66604349,16.6230381 8.16107317,15.9370578 C7.66613952,15.2592216 7.1530144,14.5619649 7.02379218,13.9987719 Z M2.47780469,11.4734873 C1.11218929,7.00114627 2.88930846,3.14148901 3.19542711,2.52755229 C3.72862559,3.04250738 4.19909483,3.72974062 4.58174315,4.40381808 C4.30322536,4.94132594 2.53488829,8.4651974 2.47780469,11.4734873 Z M8.36870693,18.0150457 C7.73890543,17.7174743 7.5287625,17.3165361 7.32363791,16.92938 C7.13984126,16.5791855 6.9485171,16.2177146 6.46487472,15.9865487 C6.35948961,15.9358049 6.24406782,15.859376 6.12488228,15.7716708 C4.56543355,11.848114 6.29550579,10.13285 6.72896479,9.78140255 C6.86132347,10.2612755 6.96043565,10.7010547 7.00434612,11.0537551 C7.04386553,11.377638 6.97172692,11.8925931 6.8995883,12.3906336 C6.81051279,13.0077026 6.72018269,13.6460715 6.81364925,14.0595391 C6.95541732,14.6747288 7.48422475,15.3945382 7.99546799,16.090542 C8.44900034,16.7082375 8.91507854,17.3453535 9.07503809,17.8646938 C9.00729051,17.9674343 8.79275654,18.2161413 8.36870693,18.0150457 Z"/>
          </g>
          <g transform="translate(73.298 49.367)">
            <path fill="#764630" stroke="#481C08" stroke-width="4.275" d="M5.63159202,4.68134253 C6.49537356,3.14462134 9.16889345,-0.63108947 11.8919694,0.294200868 C13.6170233,0.879946614 13.9576431,2.79567976 14.2355336,4.48713806 C14.6043815,6.7367776 13.9400789,11.1865659 13.3642245,12.7940777 C12.81158,14.3395694 11.1480007,17.3234272 10.0609031,18.460463 C8.72539778,19.85435 7.06558228,24.3016324 6.80337409,24.7633378 C6.39061574,25.4912914 5.84048037,26.5869805 4.21830241,26.4497844 C2.42801011,26.2969267 1.34279439,25.2908223 0.544251255,25.12105 C-1.42670123,24.7038236 3.38588549,8.68132819 5.63159202,4.68134253 Z"/>
            <path fill="#481C08" d="M6.25323872,15.9358049 C5.7482684,16.6224117 5.27215352,17.270804 5.11595773,17.8452734 C5.06201059,18.0401043 5.06075601,18.4479337 5.07079268,18.7774549 C5.07832019,19.0455823 5.14167672,19.2585808 5.20064219,19.253569 C5.25960767,19.2485573 5.29348146,19.0280413 5.28658124,18.7580344 C5.2815629,18.5506741 5.2815629,18.3257728 5.29285417,18.1503623 C5.40200303,18.249344 5.5512986,18.3339169 5.7476411,18.3339169 C5.86180831,18.3339169 5.98914865,18.3069789 6.12966213,18.2393205 C6.82532932,17.9097994 7.06558228,17.454985 7.2763525,17.0540468 C7.45763998,16.7082375 7.61697224,16.4100397 8.03474892,16.2089441 C8.79565452,15.8468467 9.94234489,14.5224975 10.1970256,13.4944668 C10.884538,10.7085723 9.00015182,7.22667404 8.73041611,6.74930692 C8.86653855,6.4085094 9.00015182,6.09214405 9.11871006,5.82276365 C9.27176939,5.4788338 9.46936648,5.06599268 9.70209193,4.63686344 C10.1600153,5.55150386 12.2112612,9.87474599 11.6147062,12.7915719 C11.0526523,15.5398784 8.54097383,18.7674314 7.66966479,19.8192679 C7.50782337,20.0153517 7.4074566,20.2101827 7.44885789,20.2577941 C7.49025919,20.3041526 7.6608827,20.1895093 7.8239787,19.992799 C8.70595171,18.9328184 11.2420946,15.693989 11.8254765,12.8454479 C11.8693869,12.6261848 11.8988697,12.40191 11.9170611,12.1719969 C12.0406377,11.9533603 12.8322806,10.4955738 13.0405417,8.54413212 C13.3052591,6.06270015 12.6923944,2.422306 12.5738362,1.75010794 C12.8705455,1.72379637 13.0844522,1.84783664 13.2331204,1.99129737 C13.4131533,2.16733432 13.5379845,2.35276827 13.5919316,2.3264567 C13.6458788,2.30014512 13.6088685,2.07461735 13.4426361,1.88354521 C13.214929,1.62230887 12.8228713,1.36545779 12.2269435,1.58033564 C10.7847985,2.10030246 9.63559894,4.11439077 8.92613132,5.71438503 C8.30887567,7.1038867 7.36417343,9.66926513 7.19605908,11.018673 C7.15089404,11.3795174 7.22428724,11.8894608 7.30269878,12.428848 C7.38738324,13.0208584 7.47394959,13.6341687 7.391147,13.997519 C7.26255207,14.5619649 6.74942695,15.2592216 6.25323872,15.9358049 Z M9.83319602,4.40319161 C10.2164716,3.72974062 10.6869409,3.04188091 11.2201394,2.52692583 C11.526258,3.14086254 13.3027499,7.00051981 11.9383891,11.4728609 C11.8800509,8.4651974 10.1123411,4.94132594 9.83319602,4.40319161 Z M5.3392738,17.8646938 C5.49860605,17.3453535 5.96531154,16.7082375 6.41884389,16.090542 C6.93071443,15.3945382 7.45889457,14.6747288 7.60128993,14.0595391 C7.69412919,13.6460715 7.6037991,13.0077026 7.51535088,12.3906336 C7.44321226,11.8925931 7.37107364,11.377638 7.41122035,11.0537551 C7.45387623,10.7010547 7.55361571,10.2606491 7.68597439,9.78140255 C8.11943339,10.13285 9.84950563,11.848114 8.29131149,15.7716708 C8.17149865,15.859376 8.05607686,15.9364314 7.95069175,15.9865487 C7.46704937,16.2177146 7.27697979,16.5791855 7.09192856,16.92938 C6.88743126,17.3165361 6.67666104,17.7174743 6.04685954,18.0150457 C5.62218264,18.2161413 5.40764866,17.9674343 5.3392738,17.8646938 Z"/>
          </g>
          <g transform="translate(3.742)">
            <path fill="#764630" d="M69.3349583,83.0872102 C66.0314385,89.8299638 56.0977682,101.839649 48.9968183,105.024075 C45.4536068,106.614639 35.0715875,106.692453 31.5640326,105.024075 C24.5343959,101.682702 14.5512026,89.8194128 11.2258926,83.0872102 C7.51958502,75.5867624 1.41966173,51.0695168 1.41173804,51.0339071 C0.553337921,47.7446304 0.093763705,44.2911535 0.0884812427,40.7315072 C0.0541452381,18.3106151 18.0184787,0.111445023 40.2167057,0.0771542465 C62.4169137,0.0422040323 80.4380336,18.1833435 80.471049,40.6035762 C80.4769918,44.1645415 80.0293031,47.6186777 79.1821282,50.9112517 C79.1715633,50.9455425 73.0300406,75.5445583 69.3349583,83.0872102 Z"/>
            <path fill="#6E3E27" d="M46.9822193,0.64756812 C64.8065675,4.82708619 78.0807349,20.9674908 78.051021,40.2395665 C78.0450782,43.7998722 77.5861643,47.2526896 76.7277642,50.5426258 C76.7198405,50.5782355 71.0425142,75.1033943 67.3976153,82.5965883 C64.1891797,89.1936061 54.389552,100.710031 47.5441412,104.042172 C46.1158955,104.737879 41.8034253,105.067598 40.2800953,105.067598 C38.7567652,105.067598 34.4449554,104.737879 33.0167097,104.042172 C26.1712989,100.710031 16.3710108,89.1936061 13.1632356,82.5965883 C9.51767636,75.1033943 3.84035006,50.5782355 3.83308667,50.5426258 C2.97468656,47.2533491 2.51511234,43.7998722 2.50982988,40.2395665 C2.48011603,20.9674908 15.7529627,4.82708619 33.5786316,0.64756812 C14.5465804,3.87551715 0.057446777,20.5955677 0.0884812427,40.7315072 C0.093763705,44.2911535 0.553337921,47.7446304 1.41173804,51.0339071 C1.41966173,51.0695168 7.50769948,75.5920379 11.2258926,83.0872102 C14.5617675,89.8128184 24.5687319,101.607527 31.5640326,105.024075 C33.3191307,105.882004 37.7081965,106.247332 40.1176596,106.246013 C42.5251417,106.247992 47.2430408,105.882004 48.9968183,105.024075 C55.9921189,101.606867 65.9984231,89.8134779 69.3349583,83.0872102 C73.0531514,75.5920379 79.1418495,51.0695168 79.1484525,51.0339071 C80.0068527,47.7446304 80.4664269,44.2911535 80.4717093,40.7315072 C80.5034041,20.5955677 66.0142705,3.87551715 46.9822193,0.64756812 Z"/>
            <path stroke="#481C08" stroke-width="4.5" d="M69.3349583,83.0872102 C66.0314385,89.8299638 56.0977682,101.839649 48.9968183,105.024075 C45.4536068,106.614639 35.0715875,106.692453 31.5640326,105.024075 C24.5343959,101.682702 14.5512026,89.8194128 11.2258926,83.0872102 C7.51958502,75.5867624 1.41966173,51.0695168 1.41173804,51.0339071 C0.553337921,47.7446304 0.093763705,44.2911535 0.0884812427,40.7315072 C0.0541452381,18.3106151 18.0184787,0.111445023 40.2167057,0.0771542465 C62.4169137,0.0422040323 80.4380336,18.1833435 80.471049,40.6035762 C80.4769918,44.1645415 80.0293031,47.6186777 79.1821282,50.9112517 C79.1715633,50.9455425 73.0300406,75.5445583 69.3349583,83.0872102 Z"/>
          </g>
          <g transform="translate(31.882 86.499)">
            <path fill="url(#d)" d="M12.4450575,6.8137858 C9.81921035,6.8137858 8.71890598,4.78291366 8.71890598,4.78291366 L16.1150168,4.64034309 C16.1150168,4.63958474 14.756532,6.8137858 12.4450575,6.8137858 Z"/>
            <path fill="#481C08" d="M11.2536306,4.84054856 C9.90122061,4.84054856 8.87229555,4.71087002 8.80015689,4.70101142 C8.68929116,4.68584434 8.61183703,4.59029173 8.62702411,4.48715558 C8.6422112,4.38250272 8.74624274,4.31500921 8.85558975,4.32486781 C8.88596393,4.32941794 13.4755013,4.70404483 15.9608679,4.17698877 C16.0793271,4.15423815 16.1803213,4.22021495 16.2046206,4.32031769 C16.2281606,4.42269548 16.1590593,4.52431493 16.051231,4.54706555 C14.9813008,4.77381341 12.2225667,4.84054856 11.2536306,4.84054856 Z M0.296907528,0.759087078 C0.0197432116,0.256298345 3.40798206,0.843264378 5.45292317,0.341233998 C7.71579896,-0.213881165 10.0857437,0.49897164 12.3881059,0.704485587 C14.1968878,0.866014999 16.061862,-0.0349096094 17.8486226,0.373843222 C20.324877,0.940333696 24.1026646,0.225205829 23.8042383,0.824305527 C23.5969346,1.23988354 20.0887178,1.62057728 18.0908567,1.28235137 C16.3435824,0.986593293 14.5348005,1.70399622 12.7708205,1.83594983 C10.5800834,2.00051265 8.39162428,0.78562947 6.22974261,1.1284055 C3.73754183,1.52350796 0.532307359,1.18679876 0.296907528,0.759087078 Z"/>
          </g>
          <g transform="translate(16.67 41.641)">
            <path fill="url(#e)" d="M0.256727577,1.41406567 C0.985310932,0.714336247 5.65929795,-0.172937282 8.35731462,0.182565624 C12.6260049,0.744604441 16.082913,4.50616941 16.082913,4.50616941 C16.082913,4.50616941 13.2089904,6.33591141 7.99480577,6.61900805 C4.55988588,6.80595866 1.10535485,4.59044556 0.256727577,1.41406567 Z" transform="translate(2.971 11.142)"/>
            <g transform="translate(7.874 10.683)">
              <path fill="#4D3623" stroke="#1F1105" stroke-width="1.5" d="M7.0053349,4.62182704 C6.48890836,6.51625989 4.53195487,7.6326221 2.63086339,7.11212786 C0.730960462,6.59222712 -0.390439857,4.63250993 0.126580958,2.73748359 C0.643007496,0.841270264 2.60352665,-0.275091949 4.50342958,0.245995783 C6.40154968,0.765303032 7.52294999,2.72502022 7.0053349,4.62182704 Z"/>
              <path fill="#5C4633" d="M6.45087465,4.6657456 C5.94633365,6.12099288 4.4261736,6.96909581 2.94523581,6.5643329 C1.57839918,6.18983819 0.715509266,4.87999693 0.827827581,3.49537543 C1.33474569,3.45561133 1.88980022,3.44374145 2.46565444,3.47163567 C2.45971167,3.49122097 2.44960896,3.5084323 2.44426047,3.52861109 C2.26241177,4.19629184 2.68613113,4.89661476 3.39034914,5.08950031 C4.09694425,5.28297935 4.81720773,4.89602127 4.99905643,4.22834052 C5.02223323,4.1410969 5.03471304,4.05385328 5.03768442,3.96779665 C5.52083146,4.14347088 5.99506434,4.37077908 6.45087465,4.6657456 Z"/>
              <path fill="#000000" d="M4.04880783,2.61700431 C3.33389284,2.41284237 2.60530949,2.81997926 2.42108368,3.53098507 C2.23626359,4.23783642 2.66592572,4.97792344 3.38024643,5.18267887 C4.0957557,5.3874343 4.82433905,4.97970392 5.00915914,4.27225907 C5.19516777,3.56125326 4.76372282,2.82175974 4.04880783,2.61700431 Z M4.20450835,5.12867092 C3.90736995,5.22125598 3.60012885,5.09840272 3.51871292,4.85447669 C3.43967411,4.61055065 3.61558004,4.33991739 3.91509555,4.2497063 C4.21401678,4.15712124 4.52066361,4.2799745 4.60267381,4.52212005 C4.68349545,4.76604608 4.50580669,5.03667935 4.20450835,5.12867092 Z" opacity=".9"/>
              <path fill="#FFFFFF" d="M1.67051208,5.55420611 C1.45062967,5.68596178 1.12258887,5.56785647 0.934797404,5.28891429 C0.747005936,5.01234609 0.774936945,4.68117644 0.995413638,4.54882728 C1.2141075,4.41885209 1.54511968,4.5363639 1.73172259,4.8135256 C1.91713695,5.0906873 1.8903945,5.42304394 1.67051208,5.55420611 Z" opacity=".6"/>
              <path fill="#FFFFFF" d="M6.36470451,3.52505013 C5.86194634,3.82595159 5.10662053,3.55531832 4.67874124,2.91968625 C4.25086194,2.28346068 4.31504384,1.52378836 4.81780201,1.22407389 C5.31937162,0.921985448 6.07648027,1.19261871 6.50198245,1.82884428 C6.92926747,2.46506985 6.86746269,3.22355518 6.36470451,3.52505013 Z" opacity=".8"/>
            </g>
            <path fill="#764630" d="M0.0784445374,14.9557446 C0.0784445374,23.1507097 7.60674302,27.418525 10.7754269,27.418525 C16.6825383,27.418525 21.4724093,23.1507097 21.4724093,14.9557446 C21.4724093,6.76018592 16.6825383,0.117801079 10.7754269,0.117801079 C4.86831553,0.117801079 0.0784445374,6.76018592 0.0784445374,14.9557446 Z M3.22811157,12.5562483 C3.95669493,11.8565189 8.63068195,10.9692454 11.3286986,11.3247483 C15.5973889,11.8867871 19.054297,15.6483521 19.054297,15.6483521 C19.054297,15.6483521 16.1803744,17.4780941 10.9661898,17.7611907 C7.53126987,17.9481413 4.07673884,15.7326282 3.22811157,12.5562483 Z"/>
            <path fill="url(#f)" d="M11.2799679,20.055045 C16.8733011,21.3743822 22.2449691,19.0995197 23.2807936,14.9717689 C24.3136467,10.8434246 20.6196221,6.42842277 15.0251003,5.10671164 C9.43057852,3.78678098 4.05891053,6.06164348 3.02368035,10.1899877 C1.99082728,14.3189255 5.6836633,18.7333339 11.2799679,20.055045 Z M3.22811157,12.5562483 C3.95669493,11.8565189 8.63068195,10.9692454 11.3286986,11.3247483 C15.5973889,11.8867871 19.054297,15.6483521 19.054297,15.6483521 C19.054297,15.6483521 16.1803744,17.4780941 10.9661898,17.7611907 C7.53126987,17.9481413 4.07673884,15.7326282 3.22811157,12.5562483 Z"/>
            <path fill="url(#g)" d="M3.22811157,12.5562483 C3.95669493,11.8565189 8.63068195,10.9692454 11.3286986,11.3247483 C15.5973889,11.8867871 19.054297,15.6483521 19.054297,15.6483521 C19.054297,15.6483521 16.1803744,17.4780941 10.9661898,17.7611907 C7.53126987,17.9481413 4.07673884,15.7326282 3.22811157,12.5562483 Z"/>
            <path fill="#481C08" d="M18.7981637,13.4470828 C14.934176,10.9241398 16.3889656,11.6131864 9.15305125,9.46889253 C11.1403129,9.76563953 14.8414688,10.6950511 16.1102497,11.4392926 C16.8013937,11.8274377 18.2038869,12.9283691 18.7981637,13.4470828 Z"/>
            <path fill="#000000" d="M2.28974851,12.5141102 C3.44680543,15.4376617 8.07443886,20.79988 19.6931446,15.7979125 C17.8526693,13.8037727 13.1531284,10.3894017 8.90167217,10.4190764 C5.34017131,10.4434097 3.34993831,11.5520565 2.28974851,12.5141102 Z M3.22811157,12.6256871 C3.95669493,11.9508844 8.63068195,11.0944726 11.3286986,11.4381056 C15.5973889,11.9799656 19.054297,15.6079945 19.054297,15.6079945 C19.054297,15.6079945 16.1803744,17.3730456 10.9661898,17.6460529 C7.53126987,17.8258815 4.07673884,15.6893031 3.22811157,12.6256871 Z"/>
          </g>
          <g transform="translate(47.548 41.642)">
            <path fill="url(#h)" d="M16.1459063,1.41406567 C15.417323,0.714336247 10.743336,-0.172937282 8.0453193,0.182565624 C3.77662906,0.744604441 0.319720918,4.50616941 0.319720918,4.50616941 C0.319720918,4.50616941 3.19364352,6.33591141 8.40782815,6.61900805 C11.842748,6.80595866 15.2966848,4.59044556 16.1459063,1.41406567 Z" transform="translate(4.16 11.142)"/>
            <g transform="translate(8.766 10.683)">
              <path fill="#4D3623" stroke="#1F1105" stroke-width="1.5" d="M7.0053349,4.62182704 C6.48890836,6.51625989 4.53195487,7.6326221 2.63026911,7.11212786 C0.730960462,6.59222712 -0.391034134,4.63250993 0.125986681,2.73748359 C0.642413219,0.841270264 2.60352665,-0.275091949 4.5028353,0.245995783 C6.40154968,0.765303032 7.52235572,2.72502022 7.0053349,4.62182704 Z"/>
              <path fill="#5C4633" d="M6.45087465,4.6657456 C5.94633365,6.12099288 4.42557932,6.96909581 2.94523581,6.5643329 C1.57839918,6.18983819 0.714914989,4.87999693 0.827827581,3.49537543 C1.33533997,3.45561133 1.88980022,3.44374145 2.46565444,3.47163567 C2.45971167,3.49122097 2.44960896,3.5084323 2.44426047,3.52861109 C2.26241177,4.19629184 2.68613113,4.89661476 3.39094341,5.08950031 C4.09753853,5.28297935 4.81780201,4.89602127 4.99965071,4.22834052 C5.02223323,4.1410969 5.03530732,4.05385328 5.0382787,3.96779665 C5.52083146,4.14347088 5.99565862,4.37077908 6.45087465,4.6657456 Z"/>
              <path fill="#000000" d="M4.04880783,2.61700431 C3.33448712,2.41284237 2.60530949,2.81997926 2.42167795,3.53098507 C2.23626359,4.23783642 2.66652,4.97792344 3.38024643,5.18267887 C4.0957557,5.3874343 4.82493333,4.97970392 5.00975341,4.27225907 C5.1945735,3.56125326 4.76372282,2.82175974 4.04880783,2.61700431 Z M4.20450835,5.12867092 C3.90736995,5.22125598 3.59953457,5.09840272 3.51871292,4.85447669 C3.43967411,4.61055065 3.61558004,4.33991739 3.91509555,4.2497063 C4.21401678,4.15712124 4.52066361,4.2799745 4.60267381,4.52212005 C4.68349545,4.76604608 4.50580669,5.03667935 4.20450835,5.12867092 Z" opacity=".9"/>
              <path fill="#FFFFFF" d="M1.67110636,5.55420611 C1.45122394,5.68596178 1.12258887,5.56785647 0.935391681,5.28891429 C0.747600213,5.01234609 0.774936945,4.68117644 0.996007915,4.54882728 C1.2141075,4.41885209 1.54630823,4.5363639 1.73231687,4.8135256 C1.91773123,5.0906873 1.8903945,5.42304394 1.67110636,5.55420611 Z" opacity=".6"/>
              <path fill="#FFFFFF" d="M6.36470451,3.52505013 C5.86194634,3.82595159 5.10721481,3.55531832 4.67874124,2.91968625 C4.25086194,2.28346068 4.31504384,1.52378836 4.81780201,1.22407389 C5.3199659,0.921985448 6.07588599,1.19261871 6.50198245,1.82884428 C6.92926747,2.46506985 6.86805696,3.22355518 6.36470451,3.52505013 Z" opacity=".8"/>
            </g>
            <path fill="#764630" d="M12.7585286,0.117801079 C6.85141721,0.117801079 2.06154621,6.76077941 2.06154621,14.9557446 C2.06154621,23.1507097 6.85141721,27.418525 12.7585286,27.418525 C17.0379158,27.418525 23.455511,23.1507097 23.455511,14.9557446 C23.455511,6.76018592 18.66564,0.117801079 12.7585286,0.117801079 Z M12.5677657,17.7611907 C7.35358111,17.4786875 4.47965851,15.6483521 4.47965851,15.6483521 C4.47965851,15.6483521 7.93656665,11.8867871 12.2052569,11.3247483 C14.9032736,10.9686519 19.5772606,11.8565189 20.3058439,12.5562483 C19.4566224,15.7326282 16.0026856,17.9481413 12.5677657,17.7611907 Z"/>
            <path fill="url(#i)" d="M20.5096809,10.1905812 C19.4744507,6.06223698 14.1027827,3.78678098 8.50826093,5.10730513 C2.91373914,6.42901627 -0.780285437,10.8440181 0.252567639,14.9723624 C1.2883921,19.1001132 6.66006008,21.3749757 12.2533933,20.0556385 C17.8496979,18.7333339 21.5431282,14.3189255 20.5096809,10.1905812 Z M12.5677657,17.7611907 C7.35358111,17.4786875 4.47965851,15.6483521 4.47965851,15.6483521 C4.47965851,15.6483521 7.93656665,11.8867871 12.2052569,11.3247483 C14.9032736,10.9686519 19.5772606,11.8565189 20.3058439,12.5562483 C19.4566224,15.7326282 16.0026856,17.9481413 12.5677657,17.7611907 Z"/>
            <path fill="url(#j)" d="M20.3058439,12.5562483 C19.5772606,11.8565189 14.9032736,10.9692454 12.2052569,11.3247483 C7.93656665,11.8867871 4.47965851,15.6483521 4.47965851,15.6483521 C4.47965851,15.6483521 7.35358111,17.4780941 12.5677657,17.7611907 C16.0026856,17.9481413 19.4566224,15.7326282 20.3058439,12.5562483 Z"/>
            <path fill="#481C08" d="M4.73579181,13.4470828 C8.59977955,10.9241398 7.14498995,11.6131864 14.3809043,9.46889253 C12.3936426,9.76563953 8.69248673,10.6950511 7.42370577,11.4392926 C6.73196758,11.8274377 5.33006861,12.9283691 4.73579181,13.4470828 Z"/>
            <path fill="#000000" d="M14.6322833,10.4184829 C10.3808271,10.3888082 5.68069192,13.8031792 3.84081095,15.797319 C15.4595166,20.7992865 20.0871501,15.4370682 21.244207,12.5135167 C20.1840172,11.5520565 18.1931899,10.4434097 14.6322833,10.4184829 Z M12.5677657,17.6460529 C7.35358111,17.3736391 4.47965851,15.6079945 4.47965851,15.6079945 C4.47965851,15.6079945 7.93656665,11.9799656 12.2052569,11.4381056 C14.9032736,11.0944726 19.5772606,11.9508844 20.3058439,12.6256871 C19.4566224,15.6893031 16.0026856,17.8258815 12.5677657,17.6460529 Z"/>
          </g>
          <g transform="translate(16.763 9.892)">
            <path fill="url(#k)" d="M54.3298198,64.607779 C54.3529306,79.5255856 42.2514699,91.6407806 27.2981398,91.6612231 C12.347451,91.6856223 0.207032179,79.6113125 0.183921406,64.6902088 C0.160810634,49.7737211 12.2622713,37.6110466 27.2149411,37.5873068 C42.1662902,37.5642265 54.3080296,49.6879942 54.3298198,64.607779 Z"/>
            <path fill="url(#l)" d="M52.0187426,25.0579847 C52.0187426,38.7156052 40.9328352,49.7869099 27.2578611,49.7869099 C13.5822266,49.7869099 2.49565895,38.7156052 2.49565895,25.0579847 C2.49565895,11.4003642 13.5822266,0.329059564 27.2578611,0.329059564 C40.9328352,0.329059564 52.0187426,11.4003642 52.0187426,25.0579847 Z"/>
          </g>
          <path fill="#2A232B" d="M0.131992697,3.7904206 C6.04742395,-2.12908855 10.0926661,0.279903596 18.3103257,1.85325619 C18.8124896,1.94940222 22.0661551,2.76664345 21.4659355,3.91208687 C21.1788998,4.46047533 20.2559879,4.39519099 19.7407499,4.38569508 C11.6062891,4.23376062 7.65078275,-1.54627744 0.131992697,3.7904206 Z" transform="rotate(7.5 -322.43 150.159)"/>
          <path fill="#2A232B" d="M21.5151942,3.78734334 C15.6003572,-2.13216581 11.5545208,0.276826338 3.33686122,1.85017893 C2.83410305,1.94632496 -0.418968144,2.7635662 0.180657146,3.90900961 C0.46769284,4.45739807 1.39060471,4.39211373 1.90584269,4.38261783 C10.0403035,4.23068336 13.9964042,-1.5493547 21.5151942,3.78734334 Z" transform="rotate(-7.5 377.599 -356.347)"/>
          <g transform="translate(36.757 57.712)">
            <path fill="#673620" d="M5.17087024,0.00464943074 C5.17087024,0.00464943074 4.24709965,7.33562172 3.83308667,8.76264556 C2.92252224,11.896295 -0.239691725,16.2914493 0.373734204,18.2776765 C1.60124637,22.2488122 5.35047395,21.2405315 7.3228133,21.2260238 C9.1472437,21.2115162 12.6528177,22.2494716 13.3725532,19.6631558 C13.6049815,18.8283073 13.0813575,16.7181056 13.0813575,16.7181056 C13.0813575,16.7181056 11.3355037,18.7702767 7.2211259,18.5427706 C6.04709866,18.4774862 4.13682825,17.1605885 4.11503809,15.3036111 C4.08664486,12.7865363 5.30491272,10.6644648 5.57101675,8.16585417 C5.77175032,6.26799159 5.17087024,0.00464943074 5.17087024,0.00464943074 Z"/>
            <path fill="#481C08" d="M10.6930242,20.0812395 C11.4028551,20.0812395 11.5950046,20.2962163 11.5950046,20.5619698 C11.5950046,20.8283827 11.3738015,21.2385532 10.6930242,21.0433595 C9.94423519,20.830361 8.63748609,20.9279579 8.63748609,20.9279579 C8.63748609,20.9279579 9.98187273,20.0812395 10.6930242,20.0812395 Z M3.91034268,20.0812395 C3.1991912,20.0818989 3.00836225,20.2975351 3.00836225,20.5646075 C3.00770194,20.830361 3.22164167,21.2128351 3.91034268,21.0453378 C4.66969663,20.8593763 5.9652205,20.9299362 5.9652205,20.9299362 C5.9652205,20.9299362 4.62149416,20.0838772 3.91034268,20.0812395 Z M13.0806972,16.7181056 C13.0806972,16.7181056 14.0638954,17.9927993 13.8598603,19.3393717 C13.6611077,20.6470373 11.6742416,21.2260238 11.6742416,21.2260238 C11.6742416,21.2260238 13.0536245,20.2263158 13.2206824,19.0129499 C13.2985987,18.4438549 13.0806972,16.7181056 13.0806972,16.7181056 Z M0.942259204,15.4084618 C0.942259204,15.4084618 0.225164953,17.1915821 0.432501597,18.278336 C0.80953734,20.2408235 2.87828162,21.0242358 2.87828162,21.0242358 C2.87828162,21.0242358 1.58737991,19.6796417 1.128466,18.490675 C0.625971777,17.1915821 0.942259204,15.4084618 0.942259204,15.4084618 Z"/>
            <path fill="#855844" d="M10.6580279,17.6690152 C11.3467289,17.0827749 11.4160612,16.7484398 11.2734348,16.5288469 C11.1314686,16.3085946 10.7181159,16.1694532 10.1416672,16.8770302 C9.50579082,17.6551671 8.12376664,18.2315159 8.12376664,18.2315159 C8.12376664,18.2315159 9.96932689,18.2539368 10.6580279,17.6690152 Z"/>
          </g>
          <g transform="translate(34.283 95.035)">
            <path fill="#2A232B" d="M9.67744562,14.6184127 C8.4314456,14.3549674 5.15367977,13.3180018 4.17147255,12.9032155 C2.26318423,12.1184848 1.03963466,11.0927296 0.433472485,9.76429255 C-0.71711312,7.00091929 2.21267071,-1.80488071 9.75040958,0.442812349 C14.1282475,-0.470838447 16.4238061,1.01454475 18.4892476,5.07832896 C19.4882926,7.15226022 19.6622836,8.64324863 19.0505088,9.91002826 C18.0851395,11.9054864 15.1048421,13.4020801 9.67744562,14.6184127 Z"/>
            <path fill="#1B141C" d="M9.67744562,14.6800701 C8.39776992,14.4110196 5.09194103,13.3572383 4.1490221,12.9592677 C2.46523829,12.2642205 1.07331033,11.3001227 0.382958971,9.79231865 C-0.503833838,7.6623352 0.972283305,2.18043043 4.9460131,0.515680204 C2.54381486,2.98197683 0.44469771,6.47402865 2.49330135,9.6914247 C4.21637345,12.2754309 8.40338253,13.0489512 9.64376994,13.8224715 C12.0179051,12.6677963 15.6324277,12.4211666 17.3274367,9.07485054 C18.3320944,7.26996983 17.2713106,3.20618561 15.2114817,0.975308212 C16.5641214,1.79927549 17.5968421,3.19497518 18.5453737,5.05590808 C20.526626,9.18134972 20.0214908,12.353904 9.67744562,14.6800701 Z M9.845824,14.6128075 C9.41926543,14.0522856 9.43610327,14.0971273 9.01515732,13.3011861 C6.72521133,8.82822088 3.27345452,7.79686047 4.60364373,4.81488364 C4.14340949,7.21952285 6.91042755,8.8338261 7.98243658,10.1902892 C8.15642757,10.4088928 8.24622938,10.5602337 8.24622938,10.5602337 C9.40804021,12.5388763 9.18914831,13.0209251 9.845824,14.6128075 Z M13.1572655,11.255281 C15.497725,9.69702992 15.8625448,6.36752947 13.8812925,4.59628008 C15.2058691,6.5188704 14.7961484,9.79792387 13.1572655,11.255281 Z M8.50440956,2.43266531 C8.4314456,1.6871711 8.81871587,1.56946149 8.81871587,1.56946149 C8.81871587,1.56946149 8.5212474,1.63111891 8.36409424,2.02348428 C7.70741856,3.7723128 9.45294111,4.78125232 10.2611573,8.49751292 C10.4407609,5.19603858 8.74013929,4.5458331 8.50440956,2.43266531 Z"/>
            <path fill="#000000" d="M18.5341485,5.05590808 C16.6146349,1.28359529 14.3359142,-0.599758498 9.76163481,0.392365372 C2.21267071,-1.86093291 -0.801302311,6.95047231 0.377346358,9.79231865 C1.06769772,11.3001227 2.45962567,12.2642205 4.14340949,12.9592677 C5.08632842,13.3572383 8.39215731,14.4110196 9.671833,14.6800701 C20.0214908,12.353904 20.526626,9.18134972 18.5341485,5.05590808 Z M10.019815,14.4166248 C9.90756274,14.4558614 9.79531048,14.4894927 9.68867084,14.5175188 C5.2547068,13.0657669 1.99939143,11.9223021 0.944220241,9.60174119 C-0.0435995954,7.24754895 1.98816621,-1.09301782 9.75602219,0.521285423 C14.2629502,-0.123314831 16.0814367,1.58067193 17.9953377,5.27451165 C20.5939773,10.8012582 16.8223016,12.1577213 10.019815,14.4166248 Z"/>
          </g>
          <g transform="translate(32.297 80.767)">
            <path fill="#2A232B" d="M23.1582934,5.53399868 C15.509295,4.61078632 17.4162622,4.30480736 13.9826648,4.16764438 C13.4385717,4.14654239 12.9948453,3.77725744 12.8733488,3.26553402 C12.7729821,2.82766758 12.5511189,1.67233325 12.7095926,0.374560445 C14.1094438,0.54337642 20.3268962,1.87280222 21.779572,2.84349408 C22.9681249,3.65592096 22.9998197,4.61606182 23.1582934,5.53399868 Z M1.46324071,2.84349408 C2.9528937,1.84642473 9.43446897,0.490621427 10.4645482,0.385111443 L10.4645482,0.379835944 C10.4909605,0.374560445 10.5120903,0.374560445 10.5279377,0.374560445 C10.6864114,1.67233325 10.4698306,2.82766758 10.3641815,3.26553402 C10.0683639,4.52110283 8.72133722,4.0304814 7.36374566,4.32590936 C0.940277423,5.66061066 2.5936866,5.23329523 0.0792368615,5.53399868 C0.242993042,4.61606182 0.274687786,3.65592096 1.46324071,2.84349408 Z"/>
            <path fill="#1B141C" d="M10.5754798,0.316529953 C10.7181061,1.41910929 10.5966096,2.51641313 10.4170061,3.27608502 C10.2902271,3.80891044 9.82537082,4.19402188 9.28127771,4.21512388 C8.61568807,4.24150137 7.84973174,4.27315437 7.37959303,4.37338885 C0.913865136,5.71864115 2.64122872,5.27022372 0.0211298297,5.59202917 C0.0264122872,5.57620267 0.0264122872,5.55510068 0.0316947446,5.53927418 C0.285252701,5.29660122 0.528245743,5.16998924 0.528245743,5.16998924 C4.00410273,2.6905046 9.80952345,4.86928578 10.4962429,0.321805452 C10.5279377,0.321805452 10.5596324,0.316529953 10.5754798,0.316529953 Z M12.6673329,0.316529953 C12.5247066,1.41910929 12.6462031,2.51641313 12.8258066,3.27608502 C12.9525856,3.80891044 13.4174419,4.19402188 13.961535,4.21512388 C14.6271246,4.24150137 15.393081,4.27315437 15.8632197,4.37338885 C22.3289476,5.71864115 20.601584,5.27022372 23.2216829,5.59202917 C23.2164004,5.57620267 23.2164004,5.55510068 23.211118,5.53927418 C22.95756,5.29660122 22.714567,5.16998924 22.714567,5.16998924 C19.23871,2.6905046 13.4332892,4.86928578 12.7465698,0.321805452 C12.714875,0.321805452 12.6831803,0.316529953 12.6673329,0.316529953 Z M3.10080251,2.95427956 C2.55142694,2.97538156 2.40880059,3.04923855 2.06544086,3.28136051 C2.03902857,3.30773801 1.53191266,3.76670644 1.56888986,3.76670644 C1.40513368,3.95134892 1.07762132,4.42086835 0.919147593,4.63188831 C1.78018815,3.91442042 1.97563908,3.22333002 3.10080251,2.95427956 Z M5.0130521,3.11782004 C7.30563863,2.31594416 8.19837393,1.47713978 9.83593574,0.87573287 C8.34628274,1.79366973 7.08905787,2.84349408 5.0130521,3.11782004 Z M3.29625344,3.45017649 C4.46895899,2.66412711 5.41980133,2.25263817 6.33366646,1.86752672 C5.80542072,2.19988317 4.80175381,2.86459608 3.29625344,3.45017649 Z M7.52221938,2.85404508 C8.05046513,2.42145414 8.67907756,2.36342365 9.23901805,1.93083271 C8.66323019,2.52168863 8.20893885,2.49003563 7.52221938,2.85404508 Z M20.1420102,2.95427956 C20.6913858,2.97538156 20.8340121,3.04923855 21.1773718,3.28136051 C21.2037841,3.30773801 21.7109,3.76670644 21.6739228,3.76670644 C21.837679,3.95134892 22.1651914,4.42086835 22.3236651,4.63188831 C21.4626245,3.91442042 21.2671736,3.22333002 20.1420102,2.95427956 Z M13.406877,0.87573287 C15.0391563,1.47713978 15.9318916,2.31594416 18.2297606,3.11782004 C16.1537548,2.84349408 14.89653,1.79366973 13.406877,0.87573287 Z M16.9091462,1.86752672 C17.8230114,2.25263817 18.7738537,2.66412711 19.9465593,3.45017649 C18.4410589,2.86459608 17.437392,2.19988317 16.9091462,1.86752672 Z M14.0037947,1.93083271 C14.5637351,2.36342365 15.1923476,2.42145414 15.7205933,2.85404508 C15.0338739,2.49003563 14.5795825,2.52168863 14.0037947,1.93083271 Z"/>
            <path fill="#000000" d="M21.8112667,2.80129009 C20.2582243,1.76201674 13.6709998,0.422039938 12.8310891,0.342907449 L12.8310891,0.33763195 C12.7888294,0.332356451 12.6990277,0.321805452 12.6673329,0.321805452 C12.5247066,1.42438479 12.6462031,2.52168863 12.8258066,3.28136051 C12.9525856,3.81418594 13.4174419,4.19929738 13.961535,4.22039938 C14.6271246,4.24677687 15.393081,4.27842987 15.8632197,4.37866435 C22.3289476,5.72391665 20.601584,5.27549922 23.2216829,5.59730467 C23.0473618,4.64771481 23.0526442,3.64536996 21.8112667,2.80129009 Z M15.9371741,4.0357569 C15.4564704,3.95134892 14.8172931,3.96717541 14.1411385,3.99355291 C13.7449542,4.00937941 13.3910296,3.74560445 13.2906629,3.3657685 C13.1586015,2.88042257 13.0054102,2.19460768 12.8522189,0.506447925 C13.961535,0.728018892 15.9054793,1.44548679 17.1310095,1.76729224 C21.5101667,2.82766758 22.1018019,2.99120806 22.9364302,5.37045821 C22.9153003,5.35990721 15.9583039,4.0357569 15.9371741,4.0357569 Z M0.0211298297,5.59202917 C2.64122872,5.27549922 0.913865136,5.71864115 7.37959303,4.37338885 C7.84973174,4.27315437 8.61568807,4.24150137 9.28127771,4.21512388 C9.83065328,4.19402188 10.2955095,3.80891044 10.4170061,3.27608502 C10.5913272,2.51641313 10.7181061,1.41910929 10.5754798,0.316529953 C10.543785,0.316529953 10.4539833,0.332356451 10.4117236,0.332356451 L10.4117236,0.33763195 C9.57181287,0.422039938 2.98458845,1.76201674 1.43154596,2.79601459 C0.190168468,3.64536996 0.195450925,4.64771481 0.0211298297,5.59202917 Z M0.306382531,5.37045821 C1.14101081,2.99120806 1.73264604,2.82766758 6.11180325,1.76729224 C7.33733337,1.44548679 9.28127771,0.728018892 10.3905938,0.506447925 C10.2374025,2.19460768 10.0842112,2.88042257 9.9521498,3.3657685 C9.84650065,3.74560445 9.49785846,4.00410391 9.10167416,3.99355291 C8.4255196,3.97245091 7.78634225,3.95662441 7.30563863,4.0357569 C7.2845088,4.0357569 0.327512361,5.35990721 0.306382531,5.37045821 Z"/>
          </g>
        </g>
      </g>
    </g>
  </g>
</svg>
